<?xml version="1.0" standalone="no"?>
<!DOCTYPE svg PUBLIC "-//W3C//DTD SVG 20010904//EN"
 "http://www.w3.org/TR/2001/REC-SVG-20010904/DTD/svg10.dtd">
<svg version="1.0" xmlns="http://www.w3.org/2000/svg"
 width="260.000000pt" height="260.000000pt" viewBox="0 0 260.000000 260.000000"
 preserveAspectRatio="xMidYMid meet">
<metadata>
Created by potrace 1.11, written by Peter Selinger 2001-2013
</metadata>
<g transform="translate(0.000000,260.000000) scale(0.100000,-0.100000)"
fill="#000000" stroke="none">
<path d="M0 1300 l0 -1300 1300 0 1300 0 0 1300 0 1300 -1300 0 -1300 0 0
-1300z m898 798 c9 -9 12 -129 12 -477 0 -257 5 -493 10 -526 13 -78 61 -175
107 -216 21 -17 62 -44 93 -58 50 -24 66 -26 180 -26 114 0 130 2 180 26 102
48 167 136 189 254 7 37 11 234 11 535 0 357 3 479 12 488 17 17 279 17 296 0
16 -16 17 -997 1 -1084 -63 -341 -342 -539 -734 -521 -141 7 -210 23 -324 77
-153 73 -266 214 -318 395 -15 53 -18 125 -21 588 -2 394 0 532 9 543 15 19
279 20 297 2z"/>
</g>
</svg>
